<?xml version="1.0" standalone="no"?>
<!DOCTYPE svg PUBLIC "-//W3C//DTD SVG 20010904//EN"
 "http://www.w3.org/TR/2001/REC-SVG-20010904/DTD/svg10.dtd">
<svg version="1.0" xmlns="http://www.w3.org/2000/svg"
 width="512.000000pt" height="512.000000pt" viewBox="0 0 512.000000 512.000000"
 preserveAspectRatio="xMidYMid meet">
<metadata>
Created by potrace 1.11, written by Peter Selinger 2001-2013
</metadata>
<g transform="translate(0.000000,512.000000) scale(0.100000,-0.100000)"
fill="#000000" stroke="none">
<path d="M452 5025 c-96 -27 -184 -98 -243 -195 -33 -53 -47 -117 -45 -202 2
-77 6 -93 39 -161 44 -90 102 -146 197 -191 59 -27 74 -31 160 -30 86 0 101 3
162 32 37 18 74 39 82 48 14 13 51 -12 338 -232 178 -135 337 -257 353 -270
17 -13 38 -29 48 -36 17 -13 17 -15 0 -61 l-17 -47 -287 0 -286 0 -11 38 c-33
106 -125 206 -232 252 -70 30 -199 36 -269 12 -110 -37 -196 -116 -248 -228
-24 -52 -28 -71 -28 -155 0 -90 2 -100 38 -172 44 -90 102 -146 197 -191 59
-28 74 -31 160 -30 81 0 103 4 153 27 32 14 70 35 84 47 l25 20 42 -32 c22
-18 43 -35 46 -38 3 -3 47 -36 98 -74 50 -37 92 -71 92 -76 0 -4 -63 -55 -139
-113 l-140 -106 -25 20 c-54 42 -134 70 -214 75 -94 5 -165 -14 -239 -63 -69
-45 -109 -93 -147 -173 -28 -58 -31 -75 -31 -160 0 -86 3 -101 31 -160 46 -96
108 -160 196 -200 66 -31 81 -34 168 -34 87 -1 100 2 162 32 37 18 74 39 82
48 14 13 31 3 156 -92 77 -59 140 -110 140 -114 0 -4 -53 -47 -117 -96 -65
-49 -127 -97 -137 -106 -18 -16 -22 -17 -40 -3 -12 9 -50 30 -86 47 -57 28
-76 32 -155 32 -138 1 -236 -45 -320 -152 -60 -76 -84 -155 -81 -260 3 -71 8
-92 39 -155 44 -89 103 -147 194 -190 61 -29 77 -32 158 -32 50 1 108 7 130
14 108 37 215 142 251 247 l18 54 286 0 286 0 17 -47 c9 -25 16 -47 14 -49 -1
-1 -153 -118 -337 -259 -184 -140 -348 -266 -365 -280 -27 -22 -32 -23 -50 -9
-11 8 -49 29 -85 47 -59 29 -73 32 -160 32 -83 0 -103 -4 -154 -28 -161 -75
-241 -199 -241 -372 0 -81 4 -97 34 -162 41 -89 105 -152 196 -195 56 -26 79
-31 148 -32 98 -1 131 5 191 34 79 40 142 104 183 188 36 71 38 81 37 166 0
58 -6 107 -16 135 -20 52 -33 36 132 161 69 52 130 98 135 102 6 5 39 31 75
58 36 27 70 53 75 58 6 4 76 58 157 119 l146 112 26 -20 c93 -73 253 -97 368
-56 111 40 205 135 246 249 l17 48 202 0 203 0 0 -93 c0 -118 18 -182 66 -230
55 -55 98 -72 179 -72 62 0 75 4 120 33 60 40 92 86 108 153 l12 49 60 0 60 0
477 -477 478 -478 109 -3 109 -4 12 -29 c7 -16 33 -47 57 -68 148 -131 382
-30 389 168 3 70 -18 127 -64 175 -95 99 -250 100 -340 2 -22 -24 -43 -53 -47
-65 -6 -19 -14 -21 -78 -21 l-72 0 -480 480 -480 480 -98 0 -97 0 0 120 0 120
182 0 183 0 317 -317 318 -318 149 -3 149 -3 12 -30 c15 -34 80 -96 118 -110
81 -31 174 -18 237 33 136 113 123 298 -30 397 -34 22 -51 26 -115 26 -64 0
-81 -4 -116 -27 -45 -29 -89 -77 -99 -108 -6 -18 -15 -20 -118 -20 l-112 0
-317 318 -318 317 -220 3 -220 3 0 120 0 119 342 0 343 0 157 -158 158 -157
148 -3 148 -3 12 -28 c31 -71 115 -124 200 -127 73 -3 117 13 172 63 78 70 99
175 57 273 -64 150 -275 186 -385 66 -22 -24 -43 -53 -47 -65 -6 -20 -13 -21
-118 -21 l-111 0 -161 160 -161 160 -377 0 -377 0 0 120 0 120 649 0 649 0 12
-30 c29 -69 131 -130 218 -130 127 0 244 133 229 262 -7 62 -21 92 -68 143
-83 90 -221 99 -314 22 -20 -16 -47 -47 -61 -68 l-24 -39 -645 0 -645 0 0 120
0 120 377 0 377 0 161 160 161 160 111 0 111 0 11 -28 c32 -76 127 -132 220
-129 125 4 221 97 227 220 4 83 -18 138 -76 190 -99 89 -221 89 -319 1 -27
-24 -52 -55 -55 -69 l-6 -25 -146 0 -147 0 -161 -160 -162 -160 -342 0 -342 0
0 120 0 120 205 0 c160 0 212 3 233 14 15 8 164 152 332 320 l305 306 111 0
112 0 11 -29 c28 -65 131 -131 207 -131 114 0 225 94 240 204 14 101 -44 210
-135 254 -48 23 -154 23 -202 0 -40 -20 -103 -84 -114 -117 -6 -20 -13 -21
-153 -21 l-146 0 -321 -320 -320 -320 -183 0 -182 0 0 120 0 120 97 0 98 0
480 480 480 480 71 0 c69 0 72 -1 83 -28 39 -94 170 -152 277 -122 65 18 138
88 159 150 38 116 -14 244 -119 294 -114 54 -242 15 -312 -95 l-24 -39 -102 0
-102 0 -481 -480 -480 -480 -63 0 -62 0 -1 58 c-1 92 -12 123 -66 183 -111
123 -307 96 -386 -54 -19 -37 -22 -60 -25 -194 l-3 -153 -205 0 c-166 0 -204
3 -204 14 0 7 -16 45 -35 83 -43 86 -103 144 -193 186 -61 29 -76 32 -162 32
-83 -1 -103 -4 -154 -29 -33 -15 -70 -36 -84 -46 l-24 -19 -101 78 c-56 42
-219 167 -362 276 -143 108 -264 201 -268 205 -4 4 0 27 10 51 13 31 18 70 18
134 -1 79 -4 98 -31 155 -68 144 -186 226 -340 235 -53 3 -96 0 -132 -10z
m1091 -1552 c10 -26 14 -50 10 -54 -5 -3 -77 -59 -162 -123 l-154 -116 -41 33
c-22 19 -79 63 -126 98 -47 35 -92 69 -100 76 -8 7 -23 18 -32 25 -16 12 -16
16 -1 61 l15 47 287 0 287 0 17 -47z m1177 -393 l0 -440 -205 0 c-157 0 -205
3 -205 13 0 28 -63 141 -102 183 -25 27 -72 60 -117 82 -71 35 -80 37 -170 37
-83 0 -104 -4 -154 -27 -32 -15 -70 -36 -84 -48 l-25 -20 -42 32 c-22 18 -43
35 -46 38 -3 3 -47 36 -97 74 -51 37 -93 71 -93 75 0 4 63 56 140 114 114 87
142 104 152 93 7 -7 44 -28 82 -46 158 -75 351 -35 467 97 31 36 89 146 89
171 0 9 48 12 205 12 l205 0 0 -440z m-1323 -221 c87 -67 158 -124 158 -127
-1 -4 -7 -26 -14 -49 l-14 -43 -286 0 -287 0 -17 46 -17 46 27 22 c53 41 288
224 290 225 1 1 73 -53 160 -120z m146 -426 c17 -46 17 -46 -5 -64 -13 -10
-85 -66 -160 -123 l-137 -105 -158 120 c-87 66 -158 123 -158 127 1 4 6 26 13
50 l13 42 287 0 288 0 17 -47z m1177 -393 l0 -440 -205 0 c-157 0 -205 3 -205
13 0 36 -65 144 -118 196 -128 124 -319 145 -473 52 l-63 -38 -138 105 c-76
58 -138 108 -138 112 0 4 53 47 118 96 64 49 126 97 136 106 18 16 22 17 40 3
12 -9 50 -30 86 -47 58 -28 75 -32 160 -32 84 -1 102 2 154 27 112 52 196 143
227 245 l12 42 204 0 203 0 0 -440z m-1167 -340 c4 -3 0 -27 -10 -53 l-17 -47
-286 0 -286 0 -17 46 -17 46 27 22 c15 11 87 67 160 123 l134 102 152 -116
c84 -64 155 -119 160 -123z"/>
<path d="M2400 3200 l0 -80 80 0 80 0 0 80 0 80 -80 0 -80 0 0 -80z"/>
<path d="M2400 2880 l0 -80 80 0 80 0 0 80 0 80 -80 0 -80 0 0 -80z"/>
<path d="M2400 2240 l0 -80 80 0 80 0 0 80 0 80 -80 0 -80 0 0 -80z"/>
<path d="M2400 1920 l0 -80 80 0 80 0 0 80 0 80 -80 0 -80 0 0 -80z"/>
</g>
</svg>
