<?xml version="1.0" standalone="no"?>
<!DOCTYPE svg PUBLIC "-//W3C//DTD SVG 20010904//EN"
 "http://www.w3.org/TR/2001/REC-SVG-20010904/DTD/svg10.dtd">
<svg version="1.0" xmlns="http://www.w3.org/2000/svg"
 width="512.000000pt" height="512.000000pt" viewBox="0 0 512.000000 512.000000"
 preserveAspectRatio="xMidYMid meet">
<metadata>
Created by potrace 1.11, written by Peter Selinger 2001-2013
</metadata>
<g transform="translate(0.000000,512.000000) scale(0.100000,-0.100000)"
fill="#000000" stroke="none">
<path d="M2720 4560 l0 -400 160 0 160 0 0 -143 0 -143 -160 -159 -159 -160
-3 -279 -3 -279 -45 47 c-25 25 -48 46 -53 46 -10 0 -107 -98 -107 -108 0 -4
65 -72 145 -151 l144 -145 149 148 149 148 -53 54 c-29 30 -57 54 -62 54 -5 0
-25 -17 -45 -39 -19 -21 -40 -41 -46 -45 -8 -5 -11 58 -11 236 l0 244 160 159
160 160 0 178 0 177 160 0 160 0 0 400 0 400 -400 0 -400 0 0 -400z"/>
<path d="M1744 4928 c-4 -13 -24 -59 -44 -103 -49 -104 -56 -118 -208 -455
l-130 -285 159 -3 159 -2 0 -178 0 -177 160 -160 160 -159 0 -206 0 -205 -51
51 -51 51 -54 -53 c-30 -30 -54 -57 -54 -62 0 -4 65 -72 145 -151 l145 -144
149 147 149 148 -56 58 -57 57 -52 -51 -53 -50 0 239 0 240 -160 160 -160 159
0 143 0 143 159 2 158 3 -22 50 c-13 28 -69 151 -125 275 -56 124 -113 250
-127 280 -46 98 -89 194 -102 228 -16 38 -27 41 -37 10z"/>
<path d="M4280 4121 l-195 -118 -3 -81 -3 -82 -279 0 -280 0 0 -422 0 -423
-51 51 -51 51 -54 -53 c-30 -29 -54 -56 -54 -61 0 -4 65 -73 145 -152 l144
-145 149 148 149 148 -52 54 c-55 56 -68 63 -82 42 -5 -7 -25 -29 -46 -47
l-37 -35 0 342 0 342 200 0 200 0 0 -80 0 -80 40 -25 c22 -14 44 -25 50 -25 5
0 10 -4 10 -10 0 -5 4 -10 9 -10 5 0 72 -38 150 -85 l141 -85 198 119 197 119
0 243 c0 234 -1 244 -20 254 -11 5 -35 20 -52 33 -17 12 -34 22 -38 22 -4 0
-30 15 -58 33 -112 72 -137 87 -142 87 -3 0 -23 11 -45 25 -22 14 -41 25 -42
24 -2 0 -91 -53 -198 -118z"/>
<path d="M579 4076 c-2 -2 -17 -6 -34 -9 -75 -12 -183 -86 -235 -162 -76 -110
-89 -267 -33 -387 37 -78 77 -126 146 -171 71 -47 109 -58 202 -62 130 -5 241
43 319 138 35 42 86 140 86 165 0 9 32 12 125 12 l125 0 0 -302 0 -303 -51 51
-51 51 -54 -53 c-30 -29 -54 -56 -54 -61 0 -4 65 -73 145 -153 l145 -145 145
145 c79 80 145 148 145 152 0 11 -96 108 -107 108 -4 0 -28 -21 -53 -46 l-45
-46 -3 381 -2 381 -205 0 c-157 0 -205 3 -205 13 0 6 -13 39 -29 72 -56 119
-160 202 -281 225 -53 10 -133 13 -141 6z"/>
<path d="M720 2400 l0 -240 -240 0 -240 0 0 -560 0 -560 240 0 240 0 0 -440 0
-440 1840 0 1840 0 0 440 0 440 240 0 240 0 0 560 0 560 -240 0 -240 0 0 240
0 240 -1840 0 -1840 0 0 -240z"/>
</g>
</svg>
