<?xml version="1.0" standalone="no"?>
<!DOCTYPE svg PUBLIC "-//W3C//DTD SVG 20010904//EN"
 "http://www.w3.org/TR/2001/REC-SVG-20010904/DTD/svg10.dtd">
<svg version="1.0" xmlns="http://www.w3.org/2000/svg"
 width="512.000000pt" height="512.000000pt" viewBox="0 0 512.000000 512.000000"
 preserveAspectRatio="xMidYMid meet">
<metadata>
Created by potrace 1.11, written by Peter Selinger 2001-2013
</metadata>
<g transform="translate(0.000000,512.000000) scale(0.100000,-0.100000)"
fill="#000000" stroke="none">
<path d="M2603 5029 c-41 -12 -98 -79 -111 -131 -6 -23 -10 -74 -8 -114 l3
-72 -88 -16 c-143 -26 -329 -99 -441 -173 l-38 -26 -38 26 c-118 78 -302 148
-467 177 -86 16 -163 19 -558 20 l-457 1 0 -80 0 -79 -109 -4 c-118 -3 -141
-12 -185 -72 -21 -27 -21 -31 -23 -1438 -3 -1326 -2 -1412 15 -1440 9 -17 32
-42 51 -57 l34 -26 674 -3 c531 -2 673 -5 673 -15 0 -7 15 -44 34 -83 40 -83
102 -143 196 -188 59 -28 74 -31 160 -31 85 0 102 3 160 31 36 17 82 45 102
63 47 41 102 124 118 179 l13 42 162 0 163 0 7 -47 c18 -124 115 -231 237
-261 33 -9 212 -12 599 -12 397 0 563 -3 591 -12 22 -6 62 -32 89 -56 117
-105 98 -291 -40 -378 l-46 -29 -1120 -3 -1120 -2 -18 68 c-50 193 -233 365
-427 401 -32 6 -248 10 -518 10 -448 0 -465 0 -520 -21 -66 -25 -150 -84 -186
-131 -14 -18 -38 -60 -53 -92 l-28 -60 0 -255 0 -255 31 -65 c46 -95 101 -153
192 -197 l76 -38 470 -3 c526 -3 556 -1 684 63 115 58 227 186 268 308 18 53
20 59 22 90 2 16 62 17 1110 17 694 0 1123 4 1150 10 118 28 220 112 275 227
29 62 32 77 32 163 0 86 -3 101 -31 160 -46 95 -101 153 -192 197 l-76 38
-575 3 c-334 2 -591 7 -613 13 -106 28 -142 184 -60 262 41 39 73 47 200 47
64 0 135 5 157 11 60 17 140 72 172 121 59 86 62 106 63 480 0 237 4 344 11
349 7 4 38 10 70 13 33 4 79 13 104 20 l44 14 39 -42 c279 -293 521 -396 632
-270 43 49 51 76 55 169 3 101 -39 302 -90 420 -7 17 -25 59 -39 94 l-27 64
38 71 c20 39 51 111 68 160 23 66 36 90 49 92 34 5 170 35 226 51 221 60 380
156 411 250 42 128 -72 248 -313 328 -88 29 -213 62 -267 70 -105 16 -177 35
-186 51 -34 58 -133 181 -185 232 l-61 59 27 104 c37 142 40 283 6 349 -35 68
-81 95 -162 95 -56 0 -77 -6 -142 -37 -85 -43 -204 -130 -293 -217 l-60 -58
-97 -7 c-54 -3 -101 -7 -106 -8 -5 -2 -48 34 -96 80 -202 191 -377 277 -493
241z m108 -161 c44 -15 98 -49 184 -117 71 -57 109 -91 103 -94 -1 -1 -46 -23
-99 -50 -53 -26 -117 -63 -142 -82 l-45 -35 -21 63 c-43 134 -58 229 -47 293
7 37 16 40 67 22z m1202 -2 c7 -17 2 -139 -7 -181 -4 -16 -11 -47 -17 -67
l-10 -38 -67 34 c-37 19 -100 44 -140 56 -40 12 -72 24 -72 26 0 12 165 132
215 156 67 31 90 35 98 14z m-2452 -338 c117 -32 226 -77 311 -127 l63 -39 2
-178 2 -179 -47 -31 c-87 -57 -128 -149 -102 -228 11 -35 78 -108 122 -134
l28 -16 0 -784 c0 -742 -1 -782 -17 -774 -22 11 -236 69 -283 77 -19 3 -53 8
-75 11 -22 3 -46 7 -54 10 -83 28 -558 24 -696 -6 -22 -5 -60 -12 -85 -15 -25
-4 -49 -7 -55 -8 -7 -1 -11 414 -13 1226 l-2 1229 402 -4 c394 -5 405 -5 499
-30z m2034 21 c115 -19 310 -94 322 -125 5 -14 -65 -180 -135 -319 -58 -118
-155 -288 -256 -452 l-81 -133 -65 3 -65 2 -33 50 c-106 159 -276 465 -356
639 l-55 119 62 49 c102 79 222 131 382 166 55 12 208 12 280 1z m-941 -89
l29 -89 -35 -43 c-19 -24 -51 -69 -71 -100 -26 -42 -43 -58 -59 -59 -13 0 -30
-2 -38 -4 -8 -1 -31 -5 -50 -8 -67 -11 -146 -29 -232 -53 -48 -13 -89 -24 -92
-24 -4 0 -6 62 -6 138 l0 138 28 20 c38 27 137 78 202 104 70 28 226 69 265
69 29 1 31 -2 59 -89z m-2154 -1310 c0 -687 3 -1250 6 -1250 3 0 41 9 85 20
43 11 114 27 156 35 43 8 89 17 103 20 127 25 449 27 622 4 176 -23 447 -94
523 -136 14 -8 38 -3 99 19 183 68 366 109 561 128 81 7 403 5 440 -3 11 -3
45 -8 75 -12 62 -8 73 -10 148 -26 l53 -11 -24 -31 c-42 -55 -77 -65 -232 -69
-127 -4 -145 -7 -190 -30 -47 -24 -135 -102 -135 -120 0 -4 -119 -8 -265 -8
l-265 0 0 -51 c0 -90 -19 -139 -74 -194 -101 -101 -232 -101 -331 -1 -57 57
-75 103 -75 190 l0 56 -720 0 -720 0 0 1360 0 1360 80 0 80 0 0 -1250z m3594
1138 c79 -80 162 -216 201 -332 25 -73 43 -192 43 -283 0 -85 -4 -96 -43 -99
-11 -1 -40 -4 -65 -8 -25 -3 -70 -8 -100 -11 -30 -3 -68 -7 -85 -10 -28 -4
-132 -10 -317 -20 -43 -2 -79 -1 -82 3 -2 4 19 46 48 92 116 190 278 498 336
643 13 31 26 57 28 57 2 0 19 -15 36 -32z m-1164 -433 c46 -84 143 -250 175
-298 l19 -29 -105 6 c-57 4 -122 9 -144 11 -22 2 -67 7 -100 10 -33 4 -79 10
-102 14 -23 5 -44 6 -47 4 -2 -3 -13 0 -24 6 -41 22 -21 260 35 406 24 63 79
169 106 203 8 10 27 -19 77 -120 36 -73 86 -169 110 -213z m-464 128 c-8 -28
-28 -106 -32 -128 -3 -11 -7 -69 -10 -130 -4 -60 -7 -111 -8 -112 -2 -2 -43 6
-92 17 -113 25 -249 71 -315 106 -105 58 -88 88 91 168 43 19 159 52 265 76
104 23 107 23 101 3z m2124 -12 c256 -60 409 -136 381 -188 -11 -22 -106 -75
-166 -92 -22 -7 -49 -17 -60 -22 -25 -11 -236 -61 -241 -56 -2 2 -6 55 -8 118
-3 63 -10 129 -15 147 -5 17 -8 32 -5 32 3 0 1 8 -4 18 -14 27 -23 72 -15 72
5 0 64 -13 133 -29z m-2320 -491 c74 -17 145 -33 156 -36 17 -3 27 -20 46 -81
l24 -78 -27 -55 c-14 -30 -41 -89 -58 -130 -18 -41 -36 -84 -41 -95 -14 -34
-58 -167 -75 -228 -24 -86 -30 -133 -30 -227 0 -153 60 -225 184 -225 132 1
278 95 509 327 l77 77 80 -28 c45 -16 117 -34 160 -41 44 -7 86 -14 93 -16 9
-3 12 -66 12 -274 0 -254 -1 -271 -17 -266 -10 3 -34 8 -53 11 -19 3 -60 10
-90 15 -139 24 -417 32 -582 18 -81 -8 -239 -33 -298 -48 -19 -5 -46 -11 -60
-14 -14 -2 -54 -14 -90 -25 -36 -11 -71 -21 -77 -21 -10 0 -13 156 -13 745 0
707 1 745 18 736 9 -5 78 -23 152 -41z m515 -84 c69 -9 156 -16 265 -22 157
-9 180 -11 184 -15 31 -42 46 -71 40 -81 -18 -31 -134 -180 -202 -261 l-73
-87 -44 31 c-119 85 -227 213 -286 337 -58 123 -59 115 13 108 35 -3 81 -8
103 -10z m1506 -8 c-45 -117 -145 -272 -223 -344 -76 -70 -222 -164 -254 -164
-6 0 -31 23 -55 52 -24 29 -58 68 -75 88 -32 36 -185 235 -198 257 -12 21 36
83 64 83 102 2 288 10 350 15 128 9 293 25 296 28 1 1 25 3 53 5 49 3 51 2 42
-20z m-872 -286 c19 -26 76 -98 125 -160 50 -63 89 -117 86 -120 -8 -11 -29
-13 -145 -17 -116 -3 -232 12 -298 40 l-38 16 38 47 c21 26 48 58 60 71 11 13
45 57 75 97 29 40 55 73 58 73 3 0 20 -21 39 -47z m-741 -104 c27 -31 67 -72
88 -90 22 -18 41 -35 44 -38 3 -3 22 -18 43 -34 l39 -28 -74 -72 c-144 -142
-303 -256 -356 -256 -36 0 -45 25 -39 108 8 107 65 295 141 467 l27 59 18 -29
c10 -17 41 -56 69 -87z m1581 -104 c59 -163 92 -329 77 -389 -16 -64 -140 1
-337 176 -38 34 -69 64 -69 68 0 3 21 17 46 31 59 31 157 106 209 159 22 22
41 41 42 41 0 0 15 -38 32 -86z m-3279 -2254 l0 -400 -216 0 c-139 0 -231 4
-256 12 -22 6 -62 32 -89 56 -73 66 -81 102 -77 360 3 206 3 207 30 249 34 52
86 94 135 110 24 7 119 12 256 12 l217 1 0 -400z m498 386 c26 -7 63 -21 82
-31 42 -21 130 -93 130 -106 0 -5 -39 -9 -86 -9 -47 0 -105 -5 -129 -11 -52
-13 -126 -74 -145 -119 l-12 -30 -89 0 -89 0 0 160 0 161 145 -2 c80 0 167 -7
193 -13z m297 -340 c4 -18 5 -53 3 -77 l-4 -44 -124 -3 c-85 -1 -133 2 -149
10 -28 15 -46 58 -37 93 11 43 49 54 183 55 l122 0 6 -34z m-455 -142 c0 -27
101 -119 146 -132 23 -7 82 -12 133 -12 50 0 91 -3 91 -7 0 -14 -84 -84 -124
-105 -70 -36 -130 -46 -281 -47 l-145 -2 0 161 0 160 90 0 c75 0 90 -3 90 -16z"/>
<path d="M720 4160 l0 -80 80 0 80 0 0 80 0 80 -80 0 -80 0 0 -80z"/>
<path d="M1040 4160 l0 -80 240 0 240 0 0 80 0 80 -240 0 -240 0 0 -80z"/>
<path d="M720 3840 l0 -80 400 0 400 0 0 80 0 80 -400 0 -400 0 0 -80z"/>
<path d="M720 3200 l0 -400 400 0 400 0 0 400 0 400 -400 0 -400 0 0 -400z
m640 0 l0 -240 -240 0 -240 0 0 240 0 240 240 0 240 0 0 -240z"/>
<path d="M720 2560 l0 -80 80 0 80 0 0 80 0 80 -80 0 -80 0 0 -80z"/>
<path d="M1040 2560 l0 -80 80 0 80 0 0 80 0 80 -80 0 -80 0 0 -80z"/>
<path d="M1360 2560 l0 -80 80 0 80 0 0 80 0 80 -80 0 -80 0 0 -80z"/>
</g>
</svg>
